<?xml version="1.0" encoding="ISO-8859-1"?>
 <svg width="1000" height="640" xmlns="http://www.w3.org/2000/svg">
  <style>
  @import url(https://fonts.bunny.net/css?family=mali:400,400i,700,700i|chivo-mono:400,400i,700,700i);
  .header {
      font-family: 'Mali', sans-serif;
      font-size: 28px;
  }
  .normal {
      font-family: 'Mali', sans-serif;
      font-size: 22px;
  }
  .mono {
      font-family: 'Chivo Mono', monospaced;
      font-size: 22px;
  }
  .bold {
      font-family: 'Mali', sans-serif;
      font-weight: bold;
      font-size: 22px;
  }
  
  </style>


<rect width="460" height="240" x="270" y="50" rx="20" ry="20" fill="#eeeeee" stroke-width="2" stroke="#888888" />
<rect width="260" height="60" x="370" y="20" rx="20" ry="20" fill="#bbbbbb" stroke-width="2" stroke="#888888" />   
<text x="500" y="60" class="header" text-anchor="middle"> Call by Value</text>

   <text x="285" y="105" class="bold" text-anchor="left">Concept:</text>
   <text x="285" y="129" class="normal" text-anchor="left">&#160;   Clones the data.</text>
   <text x="285" y="165" class="mono" text-anchor="left">int add(int x, int y);</text>
   <text x="285" y="189" class="mono" text-anchor="left">add(x,y);</text>
   <text x="285" y="225" class="normal" text-anchor="left">Safe but inefficient for large</text>
   <text x="285" y="249" class="normal" text-anchor="left">data structures.</text>

<rect width="460" height="240" x="20" y="370" rx="20" ry="20" fill="#eeeeee" stroke-width="2" stroke="#888888" />
<rect width="260" height="60" x="120" y="340" rx="20" ry="20" fill="#bbbbbb" stroke-width="2" stroke="#888888" />   
<text x="250" y="380" class="header" text-anchor="middle"> Pointers</text>

   <text x="35" y="425" class="bold" text-anchor="left">Concept:</text>
   <text x="35" y="449" class="normal" text-anchor="left">&#160;   Passes memory address.</text>
   <text x="35" y="485" class="mono" text-anchor="left">void swap(int *x, int *y);</text>
   <text x="35" y="509" class="mono" text-anchor="left">swap(&amp;x,&amp;y);</text>
   <text x="35" y="545" class="normal" text-anchor="left">Requires eight '*' and two '&amp;' symbols</text>
   <text x="35" y="569" class="normal" text-anchor="left">for resolving the address issues.</text>

<rect width="460" height="240" x="520" y="370" rx="20" ry="20" fill="#eeeeee" stroke-width="2" stroke="#888888" />
<rect width="260" height="60" x="620" y="340" rx="20" ry="20" fill="#bbbbbb" stroke-width="2" stroke="#888888" />   
<text x="750" y="380" class="header" text-anchor="middle"> References</text>

   <text x="535" y="425" class="bold" text-anchor="left">Concept:</text>
   <text x="535" y="449" class="normal" text-anchor="left">&#160;   Creates an alias.</text>
   <text x="535" y="485" class="mono" text-anchor="left">void swap(int &amp;x, int &amp;y);</text>
   <text x="535" y="509" class="mono" text-anchor="left">swap(x,y);</text>
   <text x="535" y="545" class="normal" text-anchor="left">Requires only 4 '&amp;' and only in the</text>
   <text x="535" y="569" class="normal" text-anchor="left">argument lists. Clean function call.</text>
   <text x="535" y="593" class="normal" text-anchor="left">References can't be reassigned.</text>
</svg>
