<?xml version="1.0" encoding="ISO-8859-1"?>
 <svg width="900" height="400" xmlns="http://www.w3.org/2000/svg">
  <style>
  @import url(https://fonts.bunny.net/css?family=alegreya-sans-sc:400,400i,700,700i|ubuntu-mono:400,400i,700,700i);
  .header {
      font-family: 'Alegreya Sans SC', sans-serif;
      font-size: 28px;
  }
  .normal {
      font-family: 'Alegreya Sans SC', sans-serif;
      font-size: 22px;
  }
  .mono {
      font-family: 'Ubuntu Mono', monospaced;
      font-size: 22px;
  }
  .bold {
      font-family: 'Alegreya Sans SC', sans-serif;
      font-weight: bold;
      font-size: 20px;
  }
  
  </style>


        <polygon points="180,130 290,130 290,115 320,150 290,185 290,170 180,170" fill="#FAC5D5" stroke-width="2" stroke="#888888" />
        <polygon points="540,130 650,130 650,115 680,150 650,185 650,170 540,170" fill="#FAC5D5" stroke-width="2" stroke="#888888" />
        <rect width="260" height="180" x="320" y="60" rx="20" ry="20" fill="#D7F5EB" stroke-width="2" stroke="#888888" />
        <circle cx="150" cy="150" r="70" fill="#D7F5EB" stroke-width="2" stroke="#888888" />
        <circle cx="750" cy="150" r="70" fill="#D7F5EB" stroke-width="2" stroke="#888888" />
    
   <text x="150" y="30" class="header" text-anchor="middle">KNOWN</text>
   <text x="150" y="160" class="header" text-anchor="middle">Input</text>
   <text x="150" y="290" class="bold" text-anchor="middle">This is some text which is</text>
   <text x="150" y="320" class="bold" text-anchor="middle">displayed over several </text>
   <text x="150" y="350" class="bold" text-anchor="middle">lines in sequence.</text>
   <text x="450" y="30" class="header" text-anchor="middle">UNKOWN</text>
   <text x="450" y="160" class="header" text-anchor="middle">Function</text>
   <text x="450" y="305" class="bold" text-anchor="middle">This function has to be found</text>
   <text x="450" y="335" class="bold" text-anchor="middle">by the algorithm.</text>
   <text x="750" y="30" class="header" text-anchor="middle">KNOWN</text>
   <text x="750" y="160" class="header" text-anchor="middle">Output</text>
   <text x="750" y="290" class="bold" text-anchor="middle">This is the final output, we</text>
   <text x="750" y="320" class="bold" text-anchor="middle">optimize the function to find </text>
   <text x="750" y="350" class="bold" text-anchor="middle">this.</text>
</svg>
