<?xml version="1.0" encoding="ISO-8859-1"?>
 <svg width="1200" height="600" xmlns="http://www.w3.org/2000/svg">
  <style>
  @import url(https://fonts.bunny.net/css?family=andika:400,400i,700,700i|ubuntu-mono:400,400i,700,700i);
  .header {
      font-family: 'Andika', sans-serif;
      font-size: 28px;
  }
  .normal {
      font-family: 'Andika', sans-serif;
      font-size: 22px;
  }
  .large {
      font-family: 'Andika', sans-serif;
      font-size: 24px;
  }
  .mono {
      font-family: 'Ubuntu Mono', monospaced;
      font-size: 22px;
  }
  .bold {
      font-family: 'Andika', sans-serif;
      font-weight: bold;
      font-size: 22px;
  }
  
  </style>

        <polygon points="380,130 430,130 430,115 455,150 430,185 430,170 380,170" fill="#E68080" stroke-width="2" stroke="#888888" />
        <polygon points="600,130 795,130 795,115 820,150 795,185 795,170 600,170" fill="#E68080" stroke-width="2" stroke="#888888" />
        <rect width="360" height="280" x="20" y="10" rx="20" ry="20" fill="#FFCCCC" stroke-width="2" stroke="#888888" />
        <circle cx="600" cy="150" r="145" fill="#FFCCCC" stroke-width="2" stroke="#888888" />
        <rect width="360" height="280" x="820" y="10" rx="20" ry="20" fill="#FFCCCC" stroke-width="2" stroke="#888888" />
    
            <rect width="660" height="180" x="270" y="370" rx="20" ry="20" fill="#FFE5CC" stroke-width="2" stroke="#888888" />
        <text x="200" y="70" class="header" text-anchor="middle">Data Sources</text>   <text x="60" y="140" class="header" text-anchor="left">- std::cin (Terminal)</text>
   <text x="60" y="180" class="header" text-anchor="left">- std::ifstream (Files)</text>
   <text x="600" y="130" class="header" text-anchor="middle">std:::stringstream</text>
   <text x="600" y="170" class="header" text-anchor="middle">(Parser &amp; Formatter)</text>
   <text x="1000" y="70" class="header" text-anchor="middle">Data Destinations</text>
   <text x="860" y="140" class="header" text-anchor="left">- std::cout (Terminal)</text>
   <text x="860" y="180" class="header" text-anchor="left">- std::ofstream (Files)</text>
   <text x="600" y="410" class="header" text-anchor="middle">File Stream Modes</text>
   <text x="310" y="470" class="header" text-anchor="left">- ios::in (Read)</text>
   <text x="310" y="510" class="header" text-anchor="left">- ios::out (Write)</text>
   <text x="600" y="470" class="header" text-anchor="left">- ios::app (Append)</text>
   <text x="600" y="510" class="header" text-anchor="left">- ios::trunc (Overwrite)</text>
</svg>
