<?xml version="1.0" encoding="ISO-8859-1"?>
 <svg width="1220" height="540" xmlns="http://www.w3.org/2000/svg">
  <style>
  @import url(https://fonts.bunny.net/css?family=andika:400,400i,700,700i|ubuntu-mono:400,400i,700,700i);
  .header {
      font-family: 'Andika', sans-serif;
      font-size: 28px;
      fill: #000000;
  }
  .normal {
      font-family: 'Andika', sans-serif;
      font-size: 22px;
      fill: #333366;
  }
  .small {
      font-family: 'Andika', sans-serif;
      font-size: 16px;
      fill: #333366;
  }
  .large {
      font-family: 'Andika', sans-serif;
      font-size: 24px;
      fill: #333366;
  }
  .mono {
      font-family: 'Ubuntu Mono', monospaced;
      font-size: 22px;
      fill: #333366;
  }
  .bold {
      font-family: 'Andika', sans-serif;
      font-weight: bold;
      font-size: 22px;
      fill: #333366;
  }
  
  </style>
<text x="10" y="165" class="large" text-anchor="left">Math</text>
<text x="10" y="255" class="large" text-anchor="left"></text>
<text x="10" y="285" class="large" text-anchor="left">Requirements</text>
<text x="10" y="385" class="large" text-anchor="left">Categories</text>
<text x="10" y="495" class="large" text-anchor="left">Risks</text>
<rect x="180" y="10" width="500" height="80" rx="20" ry="20"  stroke-width="2" stroke="#888888" fill="#80CC80"/>
<text x="430" y="60" class="header" text-anchor="middle">Linear Models</text>
<rect x="183" y="110" width="500" height="90" rx="20" ry="20"  stroke-width="2" stroke="#888888" fill="#CCFFCC"/>
<text x="210" y="165" class="large" text-anchor="left"> Continous algebraic equations.</text>
<rect x="183" y="220" width="500" height="90" rx="20" ry="20"  stroke-width="2" stroke="#888888" fill="#CCFFCC"/>
<text x="210" y="255" class="large" text-anchor="left"> Requires linear relationships or</text>
<text x="210" y="285" class="large" text-anchor="left">explicit manual transformation.</text>
<rect x="183" y="330" width="500" height="90" rx="20" ry="20"  stroke-width="2" stroke="#888888" fill="#CCFFCC"/>
<text x="210" y="365" class="large" text-anchor="left"> Requires converting categories into</text>
<text x="210" y="395" class="large" text-anchor="left">numbers (dummy variables).</text>
<rect x="183" y="440" width="500" height="90" rx="20" ry="20"  stroke-width="2" stroke="#888888" fill="#CCFFCC"/>
<text x="210" y="475" class="large" text-anchor="left"> Risks underfitting complex, interacting</text>
<text x="210" y="505" class="large" text-anchor="left">data.</text>
<rect x="700" y="10" width="500" height="80" rx="20" ry="20"  stroke-width="2" stroke="#888888" fill="#E6B380"/>
<text x="950" y="60" class="header" text-anchor="middle">Decision Trees</text>
<rect x="703" y="110" width="500" height="90" rx="20" ry="20"  stroke-width="2" stroke="#888888" fill="#FFE5CC"/>
<text x="730" y="165" class="large" text-anchor="left"> Step-functions and Boolean splits.</text>
<rect x="703" y="220" width="500" height="90" rx="20" ry="20"  stroke-width="2" stroke="#888888" fill="#FFE5CC"/>
<text x="730" y="255" class="large" text-anchor="left"> Completely immune to non-linear data</text>
<text x="730" y="285" class="large" text-anchor="left">structures.</text>
<rect x="703" y="330" width="500" height="90" rx="20" ry="20"  stroke-width="2" stroke="#888888" fill="#FFE5CC"/>
<text x="730" y="365" class="large" text-anchor="left"> Handles native categorical data cleany</text>
<text x="730" y="395" class="large" text-anchor="left">and effortlessly.</text>
<rect x="703" y="440" width="500" height="90" rx="20" ry="20"  stroke-width="2" stroke="#888888" fill="#FFE5CC"/>
<text x="730" y="475" class="large" text-anchor="left"> Prone to overfitting unless explicitly</text>
<text x="730" y="505" class="large" text-anchor="left">managed (Pruning or Random Forests).</text>
</svg>
