<?xml version="1.0" encoding="ISO-8859-1"?>
 <svg width="1400" height="540" xmlns="http://www.w3.org/2000/svg">
  <style>
  @import url(https://fonts.bunny.net/css?family=andika:400,400i,700,700i|ubuntu-mono:400,400i,700,700i);
  .header {
      font-family: 'Andika', sans-serif;
      font-size: 28px;
      fill: #000000;
  }
  .normal {
      font-family: 'Andika', sans-serif;
      font-size: 22px;
      fill: #333366;
  }
  .small {
      font-family: 'Andika', sans-serif;
      font-size: 16px;
      fill: #333366;
  }
  .large {
      font-family: 'Andika', sans-serif;
      font-size: 24px;
      fill: #333366;
  }
  .mono {
      font-family: 'Ubuntu Mono', monospaced;
      font-size: 22px;
      fill: #333366;
  }
  .bold {
      font-family: 'Andika', sans-serif;
      font-weight: bold;
      font-size: 22px;
      fill: #333366;
  }
  
  </style>
<text x="20" y="165" class="large" text-anchor="left">Memory</text>
<text x="20" y="275" class="large" text-anchor="left">Safety</text>
<text x="20" y="385" class="large" text-anchor="left">API </text>
<text x="20" y="495" class="large" text-anchor="left">Speed</text>
<rect x="200" y="10" width="580" height="80" rx="20" ry="20"  stroke-width="2" stroke="#888888" fill="#e0c0c0"/>
<text x="490" y="60" class="header" text-anchor="middle">C++ std::string</text>
<rect x="203" y="110" width="580" height="90" rx="20" ry="20"  stroke-width="2" stroke="#888888" fill="#f0e0e0"/>
<text x="280" y="165" class="large" text-anchor="left"> dynamic, expands on demand</text>

        <circle cx="16" cy="16" r="10" fill="#A2CB90" stroke="#091812" transform="translate(218 131) scale(1.5)" />
        <line  x1="10" y1="15" x2="14" y2="21" stroke="#091812" stroke-width="1.5" transform="translate(218 131) scale(1.5)" />
        <line  x1="14" y1="21" x2="22" y2="12" stroke="#091812" stroke-width="1.5" transform="translate(218 131) scale(1.5)" />
    <rect x="203" y="220" width="580" height="90" rx="20" ry="20"  stroke-width="2" stroke="#888888" fill="#f0e0e0"/>
<text x="280" y="275" class="large" text-anchor="left"> object representation, no decay</text>

        <circle cx="16" cy="16" r="10" fill="#A2CB90" stroke="#091812" transform="translate(218 241) scale(1.5)" />
        <line  x1="10" y1="15" x2="14" y2="21" stroke="#091812" stroke-width="1.5" transform="translate(218 241) scale(1.5)" />
        <line  x1="14" y1="21" x2="22" y2="12" stroke="#091812" stroke-width="1.5" transform="translate(218 241) scale(1.5)" />
    <rect x="203" y="330" width="580" height="90" rx="20" ry="20"  stroke-width="2" stroke="#888888" fill="#f0e0e0"/>
<text x="280" y="385" class="large" text-anchor="left"> rich build-in functionalities</text>

        <circle cx="16" cy="16" r="10" fill="#A2CB90" stroke="#091812" transform="translate(218 351) scale(1.5)" />
        <line  x1="10" y1="15" x2="14" y2="21" stroke="#091812" stroke-width="1.5" transform="translate(218 351) scale(1.5)" />
        <line  x1="14" y1="21" x2="22" y2="12" stroke="#091812" stroke-width="1.5" transform="translate(218 351) scale(1.5)" />
    <rect x="203" y="440" width="580" height="90" rx="20" ry="20"  stroke-width="2" stroke="#888888" fill="#f0e0e0"/>
<text x="280" y="495" class="large" text-anchor="left"> slight runtime overhead</text>

        <circle cx="16" cy="16" r="10" fill="#E48981" stroke="#181206" transform="translate(218 461) scale(1.5)" />
        <line  x1="11" y1="11" x2="21" y2="21" stroke="#091812" stroke-width="1.5" transform="translate(218 461) scale(1.5)" />
        <line  x1="11" y1="21" x2="21" y2="11" stroke="#091812" stroke-width="1.5" transform="translate(218 461) scale(1.5)"  />
    <rect x="800" y="10" width="580" height="80" rx="20" ry="20"  stroke-width="2" stroke="#888888" fill="#E6B380"/>
<text x="1090" y="60" class="header" text-anchor="middle">C char* Character Arrays</text>
<rect x="803" y="110" width="580" height="90" rx="20" ry="20"  stroke-width="2" stroke="#888888" fill="#FFE5CC"/>
<text x="880" y="165" class="large" text-anchor="left"> static, wasted or insufficient space</text>

        <circle cx="16" cy="16" r="10" fill="#E48981" stroke="#181206" transform="translate(818 131) scale(1.5)" />
        <line  x1="11" y1="11" x2="21" y2="21" stroke="#091812" stroke-width="1.5" transform="translate(818 131) scale(1.5)" />
        <line  x1="11" y1="21" x2="21" y2="11" stroke="#091812" stroke-width="1.5" transform="translate(818 131) scale(1.5)"  />
    <rect x="803" y="220" width="580" height="90" rx="20" ry="20"  stroke-width="2" stroke="#888888" fill="#FFE5CC"/>
<text x="880" y="275" class="large" text-anchor="left"> vulnerable to array decay</text>

        <circle cx="16" cy="16" r="10" fill="#E48981" stroke="#181206" transform="translate(818 241) scale(1.5)" />
        <line  x1="11" y1="11" x2="21" y2="21" stroke="#091812" stroke-width="1.5" transform="translate(818 241) scale(1.5)" />
        <line  x1="11" y1="21" x2="21" y2="11" stroke="#091812" stroke-width="1.5" transform="translate(818 241) scale(1.5)"  />
    <rect x="803" y="330" width="580" height="90" rx="20" ry="20"  stroke-width="2" stroke="#888888" fill="#FFE5CC"/>
<text x="880" y="385" class="large" text-anchor="left"> limited native manipulation</text>

        <circle cx="16" cy="16" r="10" fill="#E48981" stroke="#181206" transform="translate(818 351) scale(1.5)" />
        <line  x1="11" y1="11" x2="21" y2="21" stroke="#091812" stroke-width="1.5" transform="translate(818 351) scale(1.5)" />
        <line  x1="11" y1="21" x2="21" y2="11" stroke="#091812" stroke-width="1.5" transform="translate(818 351) scale(1.5)"  />
    <rect x="803" y="440" width="580" height="90" rx="20" ry="20"  stroke-width="2" stroke="#888888" fill="#FFE5CC"/>
<text x="880" y="495" class="large" text-anchor="left"> faster raw imlementation</text>

        <circle cx="16" cy="16" r="10" fill="#A2CB90" stroke="#091812" transform="translate(818 461) scale(1.5)" />
        <line  x1="10" y1="15" x2="14" y2="21" stroke="#091812" stroke-width="1.5" transform="translate(818 461) scale(1.5)" />
        <line  x1="14" y1="21" x2="22" y2="12" stroke="#091812" stroke-width="1.5" transform="translate(818 461) scale(1.5)" />
    </svg>
